<?xml version="1.0" encoding="UTF-8"?>
<svg id="uuid-324e56fe-81c9-4cc4-9e73-7f2ae84c3f4c" data-name="Layer 1" xmlns="http://www.w3.org/2000/svg" viewBox="0 0 1280 1024">
  <defs>
    <style>
      .uuid-4d0aefdc-4207-4ce3-a2da-3f00610c408f {
        fill-rule: evenodd;
      }

      .uuid-4d0aefdc-4207-4ce3-a2da-3f00610c408f, .uuid-3c968d96-c463-4b22-baa7-6b5d0570c9b6, .uuid-d39dccd8-3e0e-467b-aa68-04fc0033aebd {
        fill: #2d8960;
      }

      .uuid-4d0aefdc-4207-4ce3-a2da-3f00610c408f, .uuid-3739e7c3-3a00-421b-a2e2-070e83288869, .uuid-a37bee0a-a2e3-4df1-a66f-dcee70261983 {
        stroke: #000;
        stroke-miterlimit: 10;
        stroke-width: .25px;
      }

      .uuid-8ee90fb7-f69a-4e4d-9510-e90fc7f274aa {
        fill: #000;
      }

      .uuid-3739e7c3-3a00-421b-a2e2-070e83288869, .uuid-b866ebdf-f8e2-4bf2-bc87-abf496662f15 {
        fill: #2065d1;
      }

      .uuid-a37bee0a-a2e3-4df1-a66f-dcee70261983 {
        font-family: PalatinoLinotype-Bold, 'Palatino Linotype';
        font-size: 77.41px;
        font-weight: 700;
      }

      .uuid-d39dccd8-3e0e-467b-aa68-04fc0033aebd {
        letter-spacing: -.06em;
      }
    </style>
  </defs>
  <g>
    <path class="uuid-3739e7c3-3a00-421b-a2e2-070e83288869" d="M744.68,459.35c-35.56,17.72-71.54,33.57-97.26,44.18,0,0-9.94,0-9.94,0-.85,0-1.69-.1-2.51-.3-.78-.18-1.53-.46-2.26-.81l-29.4-14.47c-3.69-1.82-6.02-5.57-6.02-9.69v-20.12c0-1.6.34-3.09.93-4.41,2.38-5.32,8.89-8.09,14.63-5.27l19.86,9.78c1.29.63,2.67.99,4.13,1.11h107.85Z"/>
    <path class="uuid-3739e7c3-3a00-421b-a2e2-070e83288869" d="M600.17,406.82v-19.02c0-7.93,8.32-13.11,15.43-9.6l20,9.85c1.47.72,3.09,1.1,4.73,1.1h105.27c5.91,0,10.71,4.79,10.71,10.71v21.42c0,5.9-4.78,10.69-10.68,10.71-27.43.08-48.72-1.57-114.44-4.29l-.47-.02c-1.47-.38-2.88-.74-4.35-1.12-6.76-3.38-13.52-6.77-20.28-10.15-3.62-1.81-5.91-5.52-5.91-9.57Z"/>
    <path class="uuid-3739e7c3-3a00-421b-a2e2-070e83288869" d="M759.73,328.64v21.63c0,5.61-4.54,10.15-10.15,10.15h-113.68c-1.55,0-3.09-.36-4.48-1.04l-27.93-13.76c-3.47-1.71-5.67-5.24-5.67-9.11v-19.3c0-7.52,7.89-12.43,14.63-9.11l18.97,9.34c1.39.69,2.93,1.04,4.48,1.04h113.68c5.61,0,10.15,4.54,10.15,10.15Z"/>
  </g>
  <path class="uuid-4d0aefdc-4207-4ce3-a2da-3f00610c408f" d="M728.98,507.65c-131.32,66.8-273.17,87.35-212.82,14.27,12.82-15.52,44.31-35.72,55.56-41.62.33-.17.63.25.38.52-65.87,68.1-23.76,61.17,30.9,43.62,5.32-1.71,15.76-5.59,29.4-11.06,23.28-9.34,55.85-23.31,88.06-38.97,43.47-21.14,86.27-45.36,104.63-65.47,16.3-17.85,12.37-28.65-12.33-27.18-14.81.87-34.81,4.84-51.6,7-.37.05-.52-.47-.17-.62,14.3-6.03,58.9-20.38,86.73-19.56,72.65,2.12-8.5,83.01-118.74,139.09Z"/>
  <text class="uuid-a37bee0a-a2e3-4df1-a66f-dcee70261983" transform="translate(503.85 635.6)"><tspan class="uuid-b866ebdf-f8e2-4bf2-bc87-abf496662f15" x="0" y="0">EASE</tspan><tspan class="uuid-8ee90fb7-f69a-4e4d-9510-e90fc7f274aa" x="164.27" y="0" xml:space="preserve">   </tspan><tspan class="uuid-3c968d96-c463-4b22-baa7-6b5d0570c9b6" x="222.33" y="0">S</tspan><tspan class="uuid-d39dccd8-3e0e-467b-aa68-04fc0033aebd" x="269.62" y="0">F</tspan><tspan class="uuid-3c968d96-c463-4b22-baa7-6b5d0570c9b6" x="308.06" y="0">A</tspan></text>
</svg>