<?xml version="1.0" encoding="UTF-8"?>
<svg id="uuid-cd4ca7fd-5ef8-4a0d-a77c-cbb40080b25b" data-name="Layer 1" xmlns="http://www.w3.org/2000/svg" viewBox="0 0 120 120">
  <defs>
    <style>
      .uuid-3d3a16b3-6b3b-4bd1-b788-a99dd5e0abe0 {
        stroke-width: .05px;
      }

      .uuid-3d3a16b3-6b3b-4bd1-b788-a99dd5e0abe0, .uuid-82224485-53b5-480e-9065-6cfb580f0fa4, .uuid-e6a57f7b-1d1c-4ca0-8f02-97fa1ee053bc {
        fill: #2065d1;
      }

      .uuid-3d3a16b3-6b3b-4bd1-b788-a99dd5e0abe0, .uuid-e6a57f7b-1d1c-4ca0-8f02-97fa1ee053bc {
        stroke: #000;
        stroke-miterlimit: 10;
      }

      .uuid-4c2d17a9-4a68-4b47-afc6-4144c399f7e3, .uuid-65877514-5767-4a0e-9a5f-c149b9731560, .uuid-801256fe-7eeb-49cd-b1f6-cc592940f8f9 {
        fill: #2d8960;
      }

      .uuid-fe4f2580-68d6-4afb-8e15-c57010fe440e {
        fill: #000;
      }

      .uuid-65877514-5767-4a0e-9a5f-c149b9731560 {
        letter-spacing: -.06em;
      }

      .uuid-24d05243-4b6d-418c-9b1f-78493ab24c51 {
        font-family: PalatinoLinotype-Bold, 'Palatino Linotype';
        font-size: 23.15px;
        font-weight: 700;
      }

      .uuid-e6a57f7b-1d1c-4ca0-8f02-97fa1ee053bc {
        stroke-width: .05px;
      }

      .uuid-801256fe-7eeb-49cd-b1f6-cc592940f8f9 {
        fill-rule: evenodd;
        stroke-width: 0px;
      }
    </style>
  </defs>
  <g>
    <path class="uuid-3d3a16b3-6b3b-4bd1-b788-a99dd5e0abe0" d="M75.44,57.79c-10.64,5.3-21.4,10.04-29.09,13.22,0,0-2.97,0-2.97,0-.25,0-.51-.03-.75-.09-.23-.05-.46-.14-.68-.24l-8.79-4.33c-1.1-.54-1.8-1.67-1.8-2.9v-6.02c0-.48.1-.92.28-1.32.71-1.59,2.66-2.42,4.37-1.58l5.94,2.93c.39.19.8.3,1.24.33h32.26Z"/>
    <path class="uuid-3d3a16b3-6b3b-4bd1-b788-a99dd5e0abe0" d="M32.22,42.08v-5.69c0-2.37,2.49-3.92,4.62-2.87l5.98,2.95c.44.22.92.33,1.41.33h31.49c1.77,0,3.2,1.43,3.2,3.2v6.41c0,1.77-1.43,3.2-3.19,3.2-8.2.02-14.57-.47-34.23-1.28h-.14c-.44-.12-.86-.23-1.3-.34-2.02-1.01-4.04-2.02-6.07-3.04-1.08-.54-1.77-1.65-1.77-2.86Z"/>
    <path class="uuid-e6a57f7b-1d1c-4ca0-8f02-97fa1ee053bc" d="M79.94,18.69v6.47c0,1.68-1.36,3.04-3.04,3.04h-34c-.47,0-.92-.11-1.34-.31l-8.35-4.11c-1.04-.51-1.69-1.57-1.69-2.72v-5.77c0-2.25,2.36-3.72,4.38-2.72l5.67,2.79c.42.21.88.31,1.34.31h34c1.68,0,3.04,1.36,3.04,3.04Z"/>
  </g>
  <path class="uuid-801256fe-7eeb-49cd-b1f6-cc592940f8f9" d="M70.74,72.23c-39.28,19.98-81.7,26.13-63.65,4.27,3.83-4.64,13.25-10.68,16.62-12.45.1-.05.19.08.11.15-19.7,20.37-7.11,18.3,9.24,13.04,1.59-.51,4.71-1.67,8.79-3.31,6.96-2.79,16.7-6.97,26.34-11.66,13-6.32,25.8-13.57,31.29-19.58,4.87-5.34,3.7-8.57-3.69-8.13-4.43.26-10.41,1.45-15.43,2.09-.11.01-.16-.14-.05-.18,4.28-1.8,17.62-6.1,25.94-5.85,21.73.63-2.54,24.83-35.51,41.6Z"/>
  <text class="uuid-24d05243-4b6d-418c-9b1f-78493ab24c51" transform="translate(6.46 108.56)"><tspan class="uuid-82224485-53b5-480e-9065-6cfb580f0fa4" x="0" y="0">EASE</tspan><tspan class="uuid-fe4f2580-68d6-4afb-8e15-c57010fe440e" x="49.13" y="0" xml:space="preserve">   </tspan><tspan class="uuid-4c2d17a9-4a68-4b47-afc6-4144c399f7e3" x="66.5" y="0">S</tspan><tspan class="uuid-65877514-5767-4a0e-9a5f-c149b9731560" x="80.64" y="0">F</tspan><tspan class="uuid-4c2d17a9-4a68-4b47-afc6-4144c399f7e3" x="92.14" y="0">A</tspan></text>
</svg>